PathFileType	4	(X/Y/Z)	c:/Users/goper/Files/vsCode/490R/osim_files/A04/A04_Slow_04.trc
DataRate	CameraRate	NumFrames	NumMarkers	Units                	OrigDataRate	OrigDataStartFrame	OrigNumFrames
120.00	120.00	5	36	mm	120.0	567	1133
                Frame#	Time	LPSIS			LASIS			LTH1			LTH2			LTH3			LTH4			LLFE			LMFE			LSH1			LSH2			LSH3			LSH4			LLMAL			LMMAL			LCAL			LMTP5			LTOE			LMTP1			RPSIS			RASIS			RTH1			RTH2			RTH3			RTH4			RLFE			RMFE			RSH1			RSH2			RSH3			RSH4			RLMAL			RMMAL			RCAL			RMTP1			RTOE			RMTP5		
		X1	Y1	Z1	X2	Y2	Z2	X3	Y3	Z3	X4	Y4	Z4	X5	Y5	Z5	X6	Y6	Z6	X7	Y7	Z7	X8	Y8	Z8	X9	Y9	Z9	X10	Y10	Z10	X11	Y11	Z11	X12	Y12	Z12	X13	Y13	Z13	X14	Y14	Z14	X15	Y15	Z15	X16	Y16	Z16	X17	Y17	Z17	X18	Y18	Z18	X19	Y19	Z19	X20	Y20	Z20	X21	Y21	Z21	X22	Y22	Z22	X23	Y23	Z23	X24	Y24	Z24	X25	Y25	Z25	X26	Y26	Z26	X27	Y27	Z27	X28	Y28	Z28	X29	Y29	Z29	X30	Y30	Z30	X31	Y31	Z31	X32	Y32	Z32	X33	Y33	Z33	X34	Y34	Z34	X35	Y35	Z35	X36	Y36	Z36

567	4.71667	-811.40515	1066.70105	342.08115	-1035.22168	1030.68677	420.69174	-1076.60339	728.20349	457.83615	-1098.43921	691.48163	456.70822	-1129.87878	756.72723	448.37833	-1147.16614	715.76257	450.25912	-1172.49805	570.56122	448.75674	-1183.85498	570.20618	308.47470	-1143.62622	467.32623	452.57468	-1152.21655	424.76151	450.81583	-1204.40723	472.11075	439.53018	-1203.25024	428.63950	437.86121	-1141.67969	141.32399	413.48331	-1164.72168	143.35898	329.07895	-1077.03638	104.43587	357.47949	-1278.34180	79.61594	448.99625	-1326.60022	91.59597	387.19846	-1309.19055	77.59691	343.33682	-807.19635	1056.20886	236.22635	-1026.21533	1029.60449	134.81796	-885.57672	733.17517	111.21037	-888.40002	690.77502	113.85044	-947.19531	730.63666	102.00067	-941.46655	683.61438	109.08122	-921.05194	550.04504	137.71732	-938.85327	546.85748	253.55426	-837.06866	344.82272	154.35545	-837.51685	297.64307	163.10208	-896.24872	337.77515	142.80034	-887.21930	290.97873	149.51326	-841.61249	102.62046	159.95198	-882.68011	113.27795	289.72974	-780.59119	61.85078	245.00890	-1007.88208	57.48025	257.82126	-1025.39099	78.68928	209.52419	-985.16339	52.04306	140.28297
568	4.72500	-819.25513	1066.51257	342.54465	-1043.16577	1029.80432	421.07443	-1082.37866	726.60907	457.20959	-1104.06189	689.91687	456.24658	-1135.79785	754.93152	447.78735	-1152.91003	713.99255	449.89410	-1178.38928	568.67554	448.22369	-1190.14136	568.81744	307.97894	-1153.40015	464.25836	451.75781	-1163.67395	422.21994	450.20804	-1214.23804	471.65802	439.11917	-1214.46802	428.10260	437.42505	-1164.57996	138.57759	412.64941	-1187.96899	141.60435	328.22003	-1101.54150	99.15444	356.34036	-1303.41101	82.33596	448.65793	-1351.26782	96.08474	387.10068	-1334.73975	81.53410	343.16321	-814.91772	1055.78381	236.74274	-1033.70239	1028.74182	135.22174	-890.12421	733.44983	111.59444	-892.67108	690.94421	114.37754	-951.80188	730.29254	102.41647	-945.66858	683.37872	109.51750	-923.85809	549.91455	138.22527	-942.02795	546.61224	253.94804	-838.68805	345.16898	154.68486	-839.25171	298.02728	163.43617	-897.77936	337.79926	143.16754	-888.60059	291.11301	149.84679	-841.97321	102.94493	160.08546	-883.14270	113.32574	289.77322	-780.69128	62.26232	245.04520	-1007.89185	57.47786	258.06808	-1025.62964	78.46645	209.55634	-985.27020	51.94750	140.30540
569	4.73333	-827.24365	1065.52869	343.10376	-1051.09033	1028.74805	421.38589	-1088.09900	724.72552	456.67456	-1109.59473	687.88464	455.69839	-1141.66431	752.85565	447.30850	-1158.48022	711.88257	449.49295	-1183.87402	566.47369	447.67307	-1196.19592	567.18103	307.43924	-1162.91614	460.96011	451.52158	-1174.61609	419.68243	449.32602	-1223.47131	470.84897	438.69504	-1225.33630	427.41275	436.96066	-1186.78528	136.30545	411.88181	-1210.12085	140.23566	327.64862	-1125.45178	94.54568	355.48483	-1327.61682	85.48125	448.45743	-1374.98596	100.98496	387.04251	-1359.31067	85.92653	343.04144	-822.61273	1055.25049	237.34985	-1041.17920	1027.85425	135.55112	-894.87140	733.58105	112.17731	-897.03424	690.92731	114.86497	-956.43884	729.93707	102.81389	-949.97516	683.07202	109.96371	-926.88751	549.77435	138.62912	-945.57715	546.34674	254.38133	-840.38556	345.56134	155.15663	-840.43677	298.34537	163.75763	-899.38959	337.85669	143.50708	-890.81891	291.88983	150.02931	-842.43280	103.27545	160.24796	-883.69635	113.31879	289.87473	-781.17560	62.44539	245.18820	-1007.94580	57.10666	258.19366	-1025.77771	78.14227	209.59102	-985.40527	51.82298	140.34351
570	4.74167	-835.24969	1064.86462	343.80447	-1059.23853	1027.63489	421.65839	-1093.65857	722.75818	456.02011	-1115.06689	685.68982	455.12393	-1147.20190	750.66736	447.14166	-1164.03345	709.52496	449.16916	-1189.30408	564.24640	447.12637	-1202.25183	565.61725	306.95187	-1172.52551	457.59445	450.43851	-1185.46155	416.87762	449.11389	-1232.36426	470.09521	438.33224	-1235.79602	426.80591	436.65399	-1208.31042	134.53288	411.38461	-1231.62903	139.57722	327.26373	-1148.68530	90.47141	354.64111	-1350.86816	88.93463	448.33948	-1397.50342	105.66326	387.01230	-1382.86426	90.69665	343.08286	-830.42438	1054.57056	238.02992	-1048.69971	1026.99451	135.87959	-899.62653	733.79291	112.62436	-901.44165	691.29041	115.44537	-961.24182	729.55396	103.18196	-954.30841	682.76471	110.44629	-929.96509	549.62354	139.03777	-949.27838	545.88483	254.68552	-842.27826	346.01550	155.65088	-841.95691	298.74622	164.25615	-901.25195	337.91214	143.80344	-891.58282	291.31503	150.49149	-842.91858	103.68581	160.37640	-884.28326	113.34726	289.94751	-781.42188	62.83391	245.30714	-1008.13208	56.74178	258.27625	-1025.97144	77.81030	209.69272	-985.52942	51.74048	140.37540
571	4.75000	-843.22095	1063.98572	344.58148	-1067.49438	1026.42004	421.99789	-1099.03760	720.59479	455.44183	-1120.14807	683.37189	454.63391	-1152.93103	748.02393	446.51129	-1169.51257	706.93213	448.79382	-1194.27246	561.85236	446.51694	-1208.48828	563.65546	307.43484	-1180.84436	455.22180	450.13211	-1195.82007	414.59314	448.45056	-1240.84302	469.34995	438.02930	-1245.67664	426.22125	436.35242	-1229.15234	133.06750	411.01080	-1252.15015	139.47356	326.93512	-1171.15295	87.17020	354.07776	-1373.08655	92.57445	448.23935	-1419.95166	112.85576	387.52054	-1405.18713	95.84870	343.03766	-838.22986	1053.82812	238.79391	-1056.25537	1026.12402	136.21165	-904.55731	733.93384	113.18242	-906.01770	691.44189	115.98311	-966.15472	729.15161	103.61461	-958.78125	682.51007	110.85323	-933.37396	549.43665	139.52219	-953.17285	545.55389	255.05817	-844.33905	346.35873	156.10126	-843.65460	299.18884	164.62775	-903.11548	337.96124	144.14247	-893.17920	291.46237	150.80231	-843.34955	104.11800	160.52046	-884.75507	113.40034	290.02121	-781.69891	63.21741	245.39557	-1008.26617	56.39309	258.35431	-1026.14539	77.55110	209.80771	-985.64001	51.67174	140.42862
